<?xml version="1.0" encoding="UTF-8" standalone="no"?>
<svg
   xmlns:dc="http://purl.org/dc/elements/1.1/"
   xmlns:cc="http://creativecommons.org/ns#"
   xmlns:rdf="http://www.w3.org/1999/02/22-rdf-syntax-ns#"
   xmlns:svg="http://www.w3.org/2000/svg"
   xmlns="http://www.w3.org/2000/svg"
   xmlns:sodipodi="http://sodipodi.sourceforge.net/DTD/sodipodi-0.dtd"
   xmlns:inkscape="http://www.inkscape.org/namespaces/inkscape"
   sodipodi:docname="b.svg"
   inkscape:version="1.0 (4035a4fb49, 2020-05-01)"
   id="svg298"
   version="1.1"
   viewBox="0 0 210 297"
   height="297mm"
   width="210mm">
  <defs
     id="defs292" />
  <sodipodi:namedview
     inkscape:window-maximized="1"
     inkscape:window-y="-8"
     inkscape:window-x="-8"
     inkscape:window-height="713"
     inkscape:window-width="1366"
     showgrid="false"
     inkscape:document-rotation="0"
     inkscape:current-layer="layer1"
     inkscape:document-units="mm"
     inkscape:cy="560"
     inkscape:cx="400"
     inkscape:zoom="0.35"
     inkscape:pageshadow="2"
     inkscape:pageopacity="0.0"
     borderopacity="1.0"
     bordercolor="#666666"
     pagecolor="#ffffff"
     id="base" />
  <metadata
     id="metadata295">
    <rdf:RDF>
      <cc:Work
         rdf:about="">
        <dc:format>image/svg+xml</dc:format>
        <dc:type
           rdf:resource="http://purl.org/dc/dcmitype/StillImage" />
        <dc:title />
      </cc:Work>
    </rdf:RDF>
  </metadata>
  <g
     id="layer1"
     inkscape:groupmode="layer"
     inkscape:label="Layer 1">
    <g
       id="g24"
       transform="matrix(-0.396875,0,0,0.37483333,173.36434,76.057301)">
      <path
         style="fill:#fefefe;stroke-width:0.16"
         d="m 125.204,121.792 v -24 h 24 24 v 24 24 h -24 -24 z m 28.08,21.6936 0.96,-0.26285 1.16,-0.41161 1.16,-0.41161 -1.6e-4,-0.42376 -1.6e-4,-0.42377 -0.22084,-1.15796 -0.22083,-1.15797 1.14102,-0.55308 1.14103,-0.55309 1.28,-0.84895 1.28,-0.84895 1.44,-1.44 1.44,-1.44 0.84895,-1.28 0.84895,-1.28 0.53924,-1.12 0.53925,-1.12 0.33484,-1.00395 0.33483,-1.00396 0.25889,-1.15604 0.25888,-1.15605 0.0534,-2.36952 0.0534,-2.36953 0.92467,-0.6827 0.92466,-0.6827 0.18842,-0.23022 0.18842,-0.23021 -0.15773,-1.83552 -0.15772,-1.83552 -0.28902,-0.65337 -0.28901,-0.65336 -1.08889,-1.50868 -1.08888,-1.50867 -1.15519,-1.52903 -1.15518,-1.52903 -0.56412,-1.12018 -0.56411,-1.12018 -0.22583,-0.18742 -0.22582,-0.18742 -0.78767,-0.0219 -0.78773,-0.0219 -1.23773,0.0185 -1.23773,0.0185 -0.40469,0.61152 -0.40468,0.61153 -0.9421,-0.46695 -0.94209,-0.46694 -1.33505,-0.44795 -1.33505,-0.44794 -0.13767,-0.69613 -0.13766,-0.69612 -0.30856,-0.43333 -0.30856,-0.43333 -1.07042,-0.52718 -1.07042,-0.52718 h -1.92379 -1.9238 l -0.93317,0.43718 -0.93317,0.43718 -0.46683,0.49974 -0.46683,0.49974 -10e-4,0.82308 -0.001,0.82308 -0.97719,0.30473 -0.97718,0.30472 -1.3202,0.67365 -1.32019,0.67364 -0.27316,-0.61911 -0.27315,-0.61911 -0.27692,-0.1482 -0.27677,-0.14821 -1.43118,-0.0268 -1.43118,-0.0267 -0.58217,0.0157 -0.58217,0.0157 -0.65792,1.26459 -0.65791,1.2646 -2.18121,2.9354 -2.1812,2.93541 -0.36869,0.8 -0.36868,0.8 -0.16828,1.83307 -0.16828,1.83306 0.43826,0.46046 0.43825,0.46045 0.97791,0.63447 0.97791,0.63447 0.0872,2.19201 0.0872,2.19201 0.25188,1.15605 0.25189,1.15604 0.33483,1.00396 0.33484,1.00395 0.53924,1.12 0.53925,1.12 0.84895,1.27441 0.84895,1.27441 1.28,1.30054 1.28,1.30054 0.89615,0.65248 0.89616,0.65248 1.34384,0.77257 1.34385,0.77257 -0.18244,0.92401 -0.18243,0.92402 -0.10485,0.69921 -0.10486,0.69921 1.08729,0.40312 1.08729,0.40312 0.58407,0.18081 0.58408,0.1808 1.09592,0.22633 1.09593,0.22632 2.88,-0.0553 2.88,-0.0553 z m -18.56552,-33.8536 0.11638,-0.4 0.37572,-0.84 0.37572,-0.84 0.12885,0.006 0.12885,0.006 0.34265,0.19433 0.34264,0.19433 -0.96359,1.04 -0.96359,1.04 z m 27.42034,-1.3529 -0.58518,-0.54424 0.23827,-0.0914 0.23826,-0.0914 h 0.0637 0.0637 l 0.3265,0.64 0.3265,0.64 -0.0433,-0.004 -0.0433,-0.004 -0.58518,-0.54424 z"
         id="path40" />
      <path
         style="fill:#f9cfa6;stroke-width:0.16"
         d="m 142.96361,135.032 -3.2e-4,-0.36 -0.1645,-2.16 -0.1645,-2.16 -0.15309,-0.56 -0.15308,-0.56 -1.21612,-1.6 -1.21612,-1.6 -0.28386,-0.56 -0.28386,-0.56 -0.35418,-1.07726 -0.35418,-1.07725 -0.28604,-0.35326 -0.28605,-0.35325 -1.52045,0.19892 -1.52045,0.19892 -0.46137,-0.1113 -0.46137,-0.1113 -0.76859,-0.38415 -0.76858,-0.38416 -2.03353,-1.34466 -2.03354,-1.34466 -0.43613,-0.45523 -0.43614,-0.45523 0.16828,-1.83306 0.16828,-1.83307 0.36868,-0.8 0.36868,-0.8 2.18114,-2.93541 2.18121,-2.9354 0.65791,-1.2646 0.65792,-1.26459 0.58217,-0.0157 0.58217,-0.0157 1.43118,0.0267 1.43118,0.0268 0.26796,0.14341 0.26797,0.14341 0.26085,0.54972 0.26086,0.54971 -5.9e-4,0.77582 -5.9e-4,0.77582 -0.32291,0.52963 -0.3229,0.52963 -0.56016,0.23404 -0.56015,0.23405 -0.31635,-0.16931 -0.31635,-0.1693 v -0.12223 -0.12223 l -0.6,-0.23134 -0.6,-0.23134 -0.11141,-0.0513 -0.1114,-0.0513 -0.30788,0.61047 -0.30788,0.61047 -0.33604,1.12 -0.33605,1.12 -0.34377,1.32581 -0.34376,1.32582 -0.36284,0.53467 -0.36284,0.53468 1.25742,0.0728 1.25743,0.0728 0.81514,0.50672 0.81514,0.50672 h 0.39575 0.39574 l 0.61212,-0.31228 0.61212,-0.31228 0.72561,-0.18271 0.72561,-0.18271 1.23301,0.25499 1.23301,0.25499 h 0.75952 0.75952 l 0.43006,-0.39857 0.43006,-0.39856 0.39174,-0.84144 0.39174,-0.84143 0.002,-0.2953 0.002,-0.2953 -0.29349,-0.4247 -0.29349,-0.4247 -0.26651,-0.68324 -0.26651,-0.68324 -0.001,-0.27676 -0.001,-0.27676 -0.454,-0.25822 -0.454,-0.25821 -0.15243,-0.62179 -0.15244,-0.62178 0.0592,-0.27989 0.0591,-0.27989 0.35831,-0.0899 0.3583,-0.0899 0.18903,-0.91018 0.18903,-0.91018 0.34473,-0.69426 0.34474,-0.69427 0.38524,-0.17553 0.38524,-0.17553 1.20338,0.29967 1.20338,0.29966 0.7476,-0.21368 0.7476,-0.21368 0.51951,-0.0736 0.51951,-0.0736 0.45714,0.48938 0.45714,0.48937 0.26335,0.93857 0.26335,0.93857 v 0.31443 0.31442 l 0.48,0.18118 0.48,0.18118 v 0.33904 0.33904 l -0.22664,0.54241 -0.22663,0.54242 -0.41337,0.27085 -0.41336,0.27084 -0.004,0.3416 -0.004,0.3416 -0.32454,0.71545 -0.32453,0.71545 -0.41323,0.54177 -0.41322,0.54177 -0.81873,0.38121 -0.81872,0.38122 -0.64,-0.002 -0.64,-0.002 -0.7193,-0.32625 -0.71929,-0.32626 0.4581,0.47816 0.45811,0.47816 0.8106,0.34871 0.81061,0.34872 0.89058,-0.0649 0.89059,-0.0649 0.52,-0.25997 0.52,-0.25997 v 0.13634 0.13635 l 0.53889,0.57139 0.53889,0.57139 h 0.81065 0.81065 l 1.17046,-0.24827 1.17046,-0.24826 0.54055,0.0994 0.54054,0.0994 0.87936,0.3889 0.87936,0.38889 h 0.36946 0.36946 l 0.81515,-0.50672 0.81514,-0.50672 1.28137,-0.0742 1.28138,-0.0742 -0.23979,-0.26495 -0.23978,-0.26496 -0.2357,-0.5641 -0.23568,-0.56411 -0.41389,-1.67004 -0.41388,-1.67004 -0.41549,-1.00228 -0.4155,-1.00229 -0.13048,-0.0806 -0.13048,-0.0806 -0.65054,0.2603 -0.65055,0.2603 v 0.13699 0.137 l -0.31635,0.1693 -0.31634,0.16931 -0.56015,-0.23405 -0.56015,-0.23404 -0.32291,-0.52963 -0.3229,-0.52963 -6e-4,-0.88286 -6e-4,-0.88286 0.40577,-0.59714 0.40577,-0.59714 1.23423,-0.0185 1.23423,-0.0185 0.78767,0.0219 0.78767,0.0219 0.22582,0.18742 0.22583,0.18742 0.56411,1.12018 0.56412,1.12018 1.15518,1.52903 1.15519,1.52903 1.08889,1.50867 1.08888,1.50868 0.28902,0.65336 0.28901,0.65337 0.15852,1.83796 0.15852,1.83796 -0.34921,0.37378 -0.34922,0.37379 -2.08,1.40452 -2.08,1.40452 -0.8,0.39881 -0.8,0.3988 -0.46137,0.1113 -0.46137,0.1113 -1.49024,-0.19497 -1.49023,-0.19497 -0.24235,0.20114 -0.24236,0.20113 -0.32919,0.90543 -0.3292,0.90542 -0.26001,0.70601 -0.26002,0.70602 -1.26994,1.66583 -1.26995,1.66582 -0.22365,0.53529 -0.22366,0.53529 -0.18935,2.65287 -0.18935,2.65287 h -5.89388 -5.89388 l -3.2e-4,-0.36 z m 6.24039,-1.08 v -0.30112 l -0.16,-0.0989 -0.16,-0.0989 v 0.49888 0.49888 l 0.16,-0.0989 0.16,-0.0989 z m -2.30524,-7.92021 0.86705,-0.42421 0.17771,-0.33205 0.17771,-0.33205 -0.29862,0.12675 -0.29861,0.12676 -0.8,0.22841 -0.8,0.22842 -1.36,-0.0698 -1.36,-0.0698 -0.8,-0.37731 -0.8,-0.37731 -0.69075,-0.69036 -0.69075,-0.69036 -0.32066,-0.67346 -0.32067,-0.67346 0.0953,0.56 0.0952,0.56 0.45535,0.97349 0.45536,0.9735 0.64274,0.53961 0.64274,0.53962 0.53807,0.2058 0.53807,0.20581 1.49386,-0.0669 1.49385,-0.0669 z m 8.25615,0.37205 0.62803,-0.18816 0.6845,-0.60253 0.6845,-0.60252 0.41036,-0.92931 0.41037,-0.92932 0.10721,-0.56 0.1072,-0.56 -0.36463,0.71309 -0.36464,0.7131 -0.60144,0.60144 -0.60144,0.60144 -0.84547,0.44306 -0.84546,0.44305 -1.76,-0.008 -1.76,-0.008 -0.68226,-0.26306 -0.68225,-0.26306 0.1676,0.31318 0.16761,0.31318 0.64965,0.33142 0.64965,0.33143 0.665,0.13156 0.665,0.13157 0.94144,0.0175 0.94143,0.0175 z M 144.404,101.73159 v -0.0604 l 0.28,-0.21959 0.28,-0.21959 -0.21959,0.28 -0.21959,0.28 h -0.0604 -0.0604 z m 8.45959,-0.21959 -0.21959,-0.28 0.28,0.21959 0.28,0.21959 v 0.0604 0.0604 h -0.0604 -0.0604 z"
         id="path38" />
      <path
         style="fill:#ecb18d;stroke-width:0.16"
         d="m 149.01592,134.00413 0.0922,-0.45213 0.063,0.297 0.063,0.29699 -0.15514,0.15514 -0.15513,0.15513 z m 5.80071,-0.30546 0.0126,-0.30667 0.084,0.21 0.084,0.21 -0.0967,0.0967 -0.0967,0.0967 0.0126,-0.30666 z m -11.73263,-7.21263 0.2,-0.0807 0.2,0.0807 0.2,0.0807 h -0.4 -0.4 z m 1.36,-0.004 0.28,-0.0732 0.28,0.0732 0.28,0.0732 h -0.56 -0.56 z m 8.32,0 0.28,-0.0732 0.28,0.0732 0.28,0.0732 h -0.56 -0.56 z m 1.52,0.004 0.2,-0.0807 0.2,0.0807 0.2,0.0807 h -0.4 -0.4 z m -8.47,-0.16334 0.21,-0.084 0.0967,0.0967 0.0967,0.0967 -0.30666,-0.0126 -0.30667,-0.0126 0.21,-0.084 z m 5.92,0 0.21,-0.084 0.0967,0.0967 0.0967,0.0967 -0.30666,-0.0126 -0.30667,-0.0126 0.21,-0.084 z m -6.96696,-0.64158 0.28305,-0.0738 0.19695,0.0797 0.19696,0.0797 -0.48,-0.006 -0.48,-0.006 0.28304,-0.0738 z m 5.21655,-0.16912 -0.21959,-0.28 0.28,0.21959 0.28,0.21959 v 0.0604 0.0604 h -0.0604 -0.0604 z m 2.62345,0.16912 0.28305,-0.0738 0.19695,0.0797 0.19696,0.0797 -0.48,-0.006 -0.48,-0.006 0.28304,-0.0738 z m 4.11696,-0.42953 v -0.0604 l 0.28,-0.21959 0.28,-0.21959 -0.21959,0.28 -0.21959,0.28 h -0.0604 -0.0604 z m -0.64,-0.48 v -0.0604 l 0.28,-0.21959 0.28,-0.21959 -0.21959,0.28 -0.21959,0.28 h -0.0604 -0.0604 z m 1.53648,-1.72626 0.0824,-0.13333 h 0.15056 0.15056 v 0.13333 0.13334 h -0.23296 -0.23296 z M 139.604,122.432 v -0.32 h 0.0613 0.0613 l 0.0837,0.32 0.0837,0.32 h -0.14502 -0.14502 z m 18.35699,-0.0128 0.0991,-0.37892 0.07,0.20987 0.07,0.20987 -0.16905,0.16905 -0.16905,0.16905 z m -9.27699,-8.73313 0.2,-0.0807 0.2,0.0807 0.2,0.0807 h -0.4 -0.4 z m 1.32,-0.27692 v -0.0629 l 0.24831,-0.0953 0.24831,-0.0953 -0.0977,0.15816 -0.0978,0.15817 h -0.15056 -0.15056 z m -3.11887,-0.25529 -0.0977,-0.15816 0.24831,0.0953 0.24831,0.0953 v 0.0629 0.0629 h -0.15056 -0.15056 z m 11.30413,-6.72183 v -0.4 l 0.0807,0.2 0.0807,0.2 -0.0807,0.2 -0.0807,0.2 z m -4.65263,-3.29333 0.0126,-0.30667 0.084,0.21 0.084,0.21 -0.0967,0.0967 -0.0967,0.0967 0.0126,-0.30666 z"
         id="path36" />
      <path
         style="fill:#e5a678;stroke-width:0.16"
         d="m 145.884,135.43222 3,-0.0473 3,0.0473 3,0.0473 h -6 -6 z m 3.03119,-1.56022 0.006,-0.48 0.0738,0.28304 0.0738,0.28305 -0.0797,0.19695 -0.0797,0.19696 0.006,-0.48 z m -5.92171,-7.45277 -0.69052,-0.13414 -0.55173,-0.34098 -0.55172,-0.34099 -0.45035,-0.66556 -0.45034,-0.66556 -0.2741,-0.69997 -0.27411,-0.69997 0.0867,-0.0867 0.0867,-0.0867 v 0.16936 0.16936 l 0.74278,0.82616 0.74279,0.82615 0.7606,0.38542 0.7606,0.38543 1.01933,0.16284 1.01933,0.16284 0.99516,-0.16027 0.99516,-0.16026 0.42431,-0.16133 0.42432,-0.16132 0.0662,0.0662 0.0662,0.0662 -0.43364,0.3411 -0.43364,0.3411 -0.81478,0.22319 -0.81479,0.22319 -0.88,0.0746 -0.88,0.0746 z m 9.61716,0.005 -0.99336,-0.13096 -0.68664,-0.30442 -0.68664,-0.30442 -0.21959,-0.266 -0.21959,-0.266 h 0.0892 0.0892 l 0.41254,0.15684 0.41254,0.15685 0.99516,0.16027 0.99516,0.16027 1.01933,-0.16284 1.01933,-0.16284 0.7606,-0.38543 0.7606,-0.38542 0.74279,-0.82616 0.74278,-0.82615 v 0.18262 0.18262 l -0.39282,0.7752 -0.39282,0.77519 -0.52235,0.52235 -0.52234,0.52234 -0.48483,0.19744 -0.48484,0.19745 -0.72,0.0811 -0.72,0.0811 z m -3.74548,-12.0527 -0.57883,-0.20684 -0.58117,-0.35918 -0.58116,-0.35919 v -0.0841 -0.0841 l 0.28,0.11563 0.28,0.11562 0.60314,0.14301 0.60315,0.143 0.70749,-0.17814 0.70749,-0.17815 0.61965,-0.5304 0.61965,-0.53039 0.18971,0.70932 0.18972,0.70933 v 0.15151 0.1515 l -0.82904,0.2462 -0.82904,0.2462 -0.41096,-0.007 -0.41096,-0.007 -0.57884,-0.20684 z m 4.03147,-7.55244 0.0126,-0.30666 0.084,0.21 0.084,0.21 -0.0967,0.0967 -0.0967,0.0967 0.0126,-0.30667 z"
         id="path34" />
      <path
         style="fill:#20c3c6;stroke-width:0.16"
         d="m 141.204,138.752 -0.24,-0.1551 h 0.16 0.16 l 0.24,0.1551 0.24,0.1551 h -0.16 -0.16 z m 15.68,0 0.24,-0.1551 h 0.16 0.16 l -0.24,0.1551 -0.24,0.1551 h -0.16 -0.16 z m -19.38041,-2.36 -0.21959,-0.28 0.28,0.21959 0.28,0.21959 v 0.0604 0.0604 h -0.0604 -0.0604 z m 23.06041,0.21959 v -0.0604 l 0.28,-0.21959 0.28,-0.21959 -0.21959,0.28 -0.21959,0.28 h -0.0604 -0.0604 z m -24.64547,-1.65959 -0.87453,-0.92 0.92,0.87453 0.92,0.87454 v 0.0455 0.0455 h -0.0455 -0.0455 z m 26.40547,0.04 0.86907,-0.88 h 0.08 0.08 l -0.86907,0.88 -0.86907,0.88 h -0.08 -0.08 z m -19.47424,-0.16 0.002,-0.8 0.0669,0.4422 0.0669,0.4422 -0.0691,0.3578 -0.0691,0.3578 0.002,-0.8 z m 12,-0.16 0.002,-0.8 0.0669,0.4422 0.0669,0.4422 -0.0691,0.3578 -0.0691,0.3578 z m -20.38617,-1.32 -0.21959,-0.28 0.28,0.21959 0.28,0.21959 v 0.0604 0.0604 h -0.0604 -0.0604 z m 29.14041,0.21959 v -0.0604 l 0.28,-0.21959 0.28,-0.21959 -0.21959,0.28 -0.21959,0.28 h -0.0604 -0.0604 z M 142.68112,132.192 v -0.56 l 0.0732,0.28 0.0732,0.28 -0.0732,0.28 -0.0732,0.28 z m 12.32,-0.16 v -0.56 l 0.0732,0.28 0.0732,0.28 -0.0732,0.28 -0.0732,0.28 z m -12.50449,-1.53333 0.0126,-0.30667 0.084,0.21 0.084,0.21 -0.0967,0.0967 -0.0967,0.0967 0.0126,-0.30666 z m 12.65263,-0.0667 v -0.4 l 0.0807,0.2 0.0807,0.2 -0.0807,0.2 -0.0807,0.2 z m -22.96549,-0.72619 -0.0998,-0.25998 0.005,-0.10692 0.005,-0.10691 0.1698,0.292 0.1698,0.292 -0.0749,0.0749 -0.0749,0.0749 -0.0998,-0.25999 z m 33.82513,0.16619 v -0.16 l 0.1551,-0.24 0.1551,-0.24 v 0.16 0.16 l -0.1551,0.24 -0.1551,0.24 z m -24.82531,-1.96 -0.21959,-0.28 0.28,0.21959 0.28,0.21959 v 0.0604 0.0604 h -0.0604 -0.0604 z m -0.48,-0.64 -0.21959,-0.28 0.28,0.21959 0.28,0.21959 v 0.0604 0.0604 h -0.0604 -0.0604 z m 16.02041,0.21959 v -0.0604 l 0.28,-0.21959 0.28,-0.21959 -0.21959,0.28 -0.21959,0.28 h -0.0604 -0.0604 z m -25.74737,-1.31292 0.0126,-0.30667 0.084,0.21 0.084,0.21 -0.0967,0.0967 -0.0967,0.0967 0.0126,-0.30666 z m 36.32,0 0.0126,-0.30667 0.084,0.21 0.084,0.21 -0.0967,0.0967 -0.0967,0.0967 0.0126,-0.30666 z M 130.66926,124.512 v -0.4 l 0.0807,0.2 0.0807,0.2 -0.0807,0.2 -0.0807,0.2 z m 36.96,0 v -0.4 l 0.0807,0.2 0.0807,0.2 -0.0807,0.2 -0.0807,0.2 z m -37.0995,-1.68 0.002,-0.8 0.0669,0.4422 0.0669,0.4422 -0.0691,0.3578 -0.0691,0.3578 z m 37.28,0 0.002,-0.8 0.0669,0.4422 0.0669,0.4422 -0.0691,0.3578 -0.0691,0.3578 z m -31.76576,-0.50596 0.2,-0.0807 0.2,0.0807 0.2,0.0807 h -0.4 -0.4 z m 25.28,0 0.2,-0.0807 0.2,0.0807 0.2,0.0807 h -0.4 -0.4 z m -24.08,-0.16433 0.28,-0.0732 0.28,0.0732 0.28,0.0732 h -0.56 -0.56 z m 22.72,0 0.28,-0.0732 0.28,0.0732 0.28,0.0732 h -0.56 -0.56 z m -29.4531,-1.28971 -0.0269,-0.68 h 0.15056 0.15055 l 0.11417,0.18472 0.11416,0.18472 -0.17486,-0.10807 -0.17486,-0.10807 -0.063,0.60335 -0.063,0.60335 z m 37.29886,-0.12 0.002,-0.8 0.0669,0.4422 0.0669,0.4422 -0.0691,0.3578 -0.0691,0.3578 z m -7.91576,-4.9893 0.21,-0.084 0.0967,0.0967 0.0967,0.0967 -0.30666,-0.0126 -0.30667,-0.0126 0.21,-0.084 z m -16.96,-0.48 0.21,-0.084 0.0967,0.0967 0.0967,0.0967 -0.30666,-0.0126 -0.30667,-0.0126 0.21,-0.084 z m 1.31,0.0464 v -0.0629 l 0.24831,-0.0953 0.24831,-0.0953 -0.0978,0.15816 -0.0977,0.15817 h -0.15056 -0.15056 z m 8.88113,-0.0953 -0.0978,-0.15816 0.24831,0.0953 0.24831,0.0953 v 0.0629 0.0629 h -0.15056 -0.15056 z m 1.48887,0.0489 0.21,-0.084 0.0967,0.0967 0.0967,0.0967 -0.30666,-0.0126 -0.30667,-0.0126 0.21,-0.084 z m 7.18733,-0.23055 0.19734,-0.19882 0.0896,0.0896 0.0896,0.0896 -0.2869,0.10924 -0.2869,0.10925 z m -20.46733,-0.0894 0.21,-0.084 0.0967,0.0967 0.0967,0.0967 -0.30666,-0.0126 -0.30667,-0.0126 0.21,-0.084 z m 14.88,0 0.21,-0.084 0.0967,0.0967 0.0967,0.0967 -0.30666,-0.0126 -0.30667,-0.0126 0.21,-0.084 z m -23.33,-0.27111 v -0.0604 l 0.27071,-0.21959 0.27072,-0.21959 -0.11436,0.19062 -0.11436,0.19062 0.68364,0.0614 0.68365,0.0614 -0.84,0.028 -0.84,0.0279 z m 31.00365,-0.0569 0.68364,-0.0614 -0.11436,-0.19062 -0.11436,-0.19062 0.27072,0.21959 0.27071,0.21959 v 0.0604 0.0604 l -0.84,-0.0279 -0.84,-0.028 z m -17.87102,-2.056 0.0126,-0.30667 0.084,0.21 0.084,0.21 -0.0967,0.0967 -0.0967,0.0967 0.0126,-0.30666 z m -11.84,-0.96 0.0126,-0.30667 0.084,0.21 0.084,0.21 -0.0967,0.0967 -0.0967,0.0967 0.0126,-0.30666 z m 29.12,-0.64 0.0126,-0.30667 0.084,0.21 0.084,0.21 -0.0967,0.0967 -0.0967,0.0967 0.0126,-0.30666 z m -18.4,-1.28 0.0126,-0.30667 0.084,0.21 0.084,0.21 -0.0967,0.0967 -0.0967,0.0967 0.0126,-0.30666 z m -9.13932,-0.90667 0.71332,-0.76 h 0.0467 0.0467 v 0.0467 0.0467 l -0.76,0.71332 -0.76,0.71331 z m 8.46628,0.4 -0.21959,-0.28 0.28,0.21959 0.28,0.21959 v 0.0604 0.0604 h -0.0604 -0.0604 z m 9.07736,-0.0643 0.30305,-0.42433 0.0711,0.0688 0.0711,0.0688 -0.37416,0.35555 -0.37416,0.35556 z m 8.85444,-0.73567 -0.55139,-0.6 0.6,0.55139 0.6,0.55138 v 0.0486 0.0486 h -0.0486 -0.0486 z m -25.1318,0 -0.21959,-0.28 0.32,0.23473 0.32,0.23472 0.0667,0.0453 0.0667,0.0453 h -0.16707 -0.16708 z m 23.22041,0.21712 v -0.0629 l 0.24831,-0.0953 0.24831,-0.0953 -0.0978,0.15816 -0.0977,0.15817 h -0.15056 -0.15056 z m -21.6,-0.31753 v -0.0604 l 0.28,-0.21959 0.28,-0.21959 -0.21959,0.28 -0.21959,0.28 h -0.0604 -0.0604 z m 20.13959,-0.21959 -0.21959,-0.28 0.28,0.21959 0.28,0.21959 v 0.0604 0.0604 h -0.0604 -0.0604 z m -0.38617,-0.53064 -0.10546,-0.17065 0.0763,-0.0763 0.0763,-0.0763 0.0947,0.2469 0.0948,0.2469 h -0.0655 -0.0655 z m -18.94079,-0.72269 0.0126,-0.30667 0.084,0.21 0.084,0.21 -0.0967,0.0967 -0.0967,0.0967 z m -0.0126,-0.77723 v -0.23055 l 0.14508,-0.0897 0.14508,-0.0897 -0.0837,0.32022 -0.0837,0.32022 h -0.0613 -0.0613 z m 18.73263,-0.18277 0.0126,-0.30667 0.084,0.21 0.084,0.21 -0.0967,0.0967 -0.0967,0.0967 0.0126,-0.30666 z M 141.204,104.832 l 0.24,-0.1551 h 0.16 0.16 l -0.24,0.1551 -0.24,0.1551 h -0.16 -0.16 z m 15.68,0 -0.24,-0.1551 h 0.16 0.16 l 0.24,0.1551 0.24,0.1551 h -0.16 -0.16 z"
         id="path32" />
      <path
         style="fill:#08bec4;stroke-width:0.16"
         d="m 155.84999,138.072 -0.27618,-1 -0.32101,-0.72 -0.321,-0.72 0.0202,-1.2 0.0202,-1.2 0.16192,-1.64533 0.16191,-1.64533 0.13526,-0.35574 0.13525,-0.35574 1.37827,-1.83893 1.37828,-1.83893 0.41879,-1.28 0.41879,-1.28 0.23133,-0.36908 0.23133,-0.36907 1.87037,0.10873 1.87036,0.10872 0.61597,-0.25816 0.61598,-0.25816 1.56996,-1.02865 1.56996,-1.02866 0.0644,0.90717 0.0644,0.90716 -0.13238,1.66131 -0.13239,1.66131 -0.3312,1.29869 -0.3312,1.29869 -0.54076,1.30738 -0.54077,1.30738 -0.66814,1.09262 -0.66814,1.09262 -0.67675,0.88 -0.67674,0.88 -1.18112,1.1213 -1.18111,1.12131 -1.17561,0.78136 -1.17561,0.78136 -1.09072,0.53734 -1.09071,0.53733 h -0.0726 -0.0726 z m -15.22216,0.26439 -0.78383,-0.4156 -1.12,-0.74309 -1.12,-0.74309 -1.18111,-1.12131 -1.18112,-1.1213 -0.67674,-0.88 -0.67675,-0.88 -0.66814,-1.09262 -0.66814,-1.09262 -0.54077,-1.30738 -0.54076,-1.30738 -0.3312,-1.29869 -0.3312,-1.29869 -0.1412,-1.66131 -0.14119,-1.66131 0.0992,-0.68217 0.0992,-0.68218 1.10462,0.74207 1.10463,0.74206 0.72568,0.321 0.72568,0.32101 1.88006,-0.10997 1.88006,-0.10997 0.23278,0.36907 0.23277,0.36908 0.36778,1.18739 0.36778,1.18738 1.0081,1.37262 1.0081,1.37261 0.48377,0.67289 0.48378,0.67288 0.15317,0.8077 0.15318,0.80769 0.10772,2.1465 0.10772,2.14651 -0.34086,0.72515 -0.34086,0.72515 -0.26906,0.96776 -0.26906,0.96777 h -0.10994 -0.10994 z m -4.28046,-23.02948 -1.02062,-0.54162 -1.05375,-0.10796 -1.05376,-0.10796 0.32838,-0.64367 0.32838,-0.64368 0.36316,-1.46658 0.36315,-1.46658 0.16905,-0.30843 0.16904,-0.30843 0.89224,-0.87497 0.89224,-0.87497 0.24863,0.35497 0.24864,0.35497 h 0.39887 0.39887 l 0.47049,-0.2433 0.47048,-0.24329 0.32157,-0.63033 0.32157,-0.63033 v -0.55117 -0.55117 l 0.68,-0.39455 0.68,-0.39455 1.45984,-0.58066 1.45984,-0.58065 h 0.0814 0.0814 l 0.11113,1.24 0.11113,1.24 0.085,0.36 0.085,0.36 h -0.2543 -0.25429 l -0.10787,0.42976 -0.10786,0.42976 0.22482,0.65024 0.22481,0.65024 0.34941,0.15338 0.34941,0.15338 0.1827,0.72662 0.1827,0.72662 0.40765,0.74959 0.40765,0.74958 -0.10171,0.54217 -0.10171,0.54216 -0.45658,0.71994 -0.45657,0.71995 -0.51063,0.21151 -0.51063,0.21151 -1.33958,-0.26321 -1.33958,-0.2632 -0.77127,0.004 -0.77126,0.004 -0.72,0.33317 -0.72,0.33318 -0.43801,0.13157 -0.43801,0.13157 -1.02061,-0.54161 z m 23.4107,0.32905 -0.55407,-0.20221 -0.59486,-0.26088 -0.59486,-0.26087 h -0.7364 -0.73641 l -1.35561,0.26636 -1.35561,0.26635 -0.54166,-0.2583 -0.54166,-0.2583 -0.40235,-0.68805 -0.40236,-0.68806 -0.14893,-0.66589 -0.14893,-0.66589 0.21991,-0.21992 0.21991,-0.21991 0.31991,-0.9102 0.31991,-0.9102 v -0.24399 -0.244 h 0.2152 0.2152 l 0.28813,-0.31838 0.28813,-0.31838 0.0768,-0.79893 0.0768,-0.79893 -0.22397,-0.0859 -0.22397,-0.0859 0.14209,-1.63674 0.1421,-1.63675 0.0448,-0.0497 0.0448,-0.0497 1.20726,0.40526 1.20726,0.40527 1.01141,0.47787 1.01141,0.47787 -0.0565,0.711 -0.0565,0.711 0.28207,0.59442 0.28207,0.59442 0.4928,0.30051 0.49281,0.30051 0.38165,6e-4 0.38166,5.9e-4 0.3707,-0.4 0.37071,-0.4 h 0.21517 0.21517 l 0.607,0.62163 0.607,0.62162 0.53446,2.08437 0.53446,2.08436 0.315,0.614 0.315,0.61399 -1.24902,0.17846 -1.24903,0.17847 -0.47407,0.33756 -0.47407,0.33757 -0.38682,0.14707 -0.38683,0.14707 -0.55407,-0.20221 z"
         id="path30" />
      <path
         style="fill:#ea1c4d;stroke-width:0.16"
         d="m 145.87486,143.62752 -1.32915,-0.23395 -1.47472,-0.48901 -1.47471,-0.489 -0.22571,-0.1395 -0.2257,-0.13949 0.20039,-1.30901 0.20038,-1.309 0.29956,-1.17125 0.29956,-1.17125 0.35014,-0.81394 0.35014,-0.81393 6.01864,0.0419 6.01865,0.0419 0.37564,0.94683 0.37565,0.94684 0.37957,1.69316 0.37957,1.69317 0.0456,0.71088 0.0456,0.71087 -0.8,0.30494 -0.8,0.30494 -1.52,0.39668 -1.52,0.39667 -2.32,0.0623 -2.32,0.0623 z"
         id="path28" />
      <path
         style="fill:#0c4157;stroke-width:0.16"
         d="m 144.34162,106.7102 -0.0988,-0.3582 -0.0973,-1.92 -0.0973,-1.92 0.37791,-0.56 0.37791,-0.56 1.06292,-0.53396 1.06291,-0.53396 1.2747,-0.0874 1.2747,-0.0874 0.86238,0.20324 0.86239,0.20324 0.72,0.36225 0.72,0.36225 0.36717,0.39378 0.36716,0.39378 0.16081,1.0329 0.16081,1.03291 -0.12798,1.41624 -0.12797,1.41625 -0.1868,0.0618 -0.1868,0.0619 -0.18768,-0.90406 -0.18769,-0.90406 -0.2292,-0.54856 -0.22921,-0.54857 -0.31631,-0.31631 -0.31631,-0.31631 h -0.6115 -0.6115 l -0.74266,0.25305 -0.74266,0.25305 -0.87047,-0.25305 -0.87046,-0.25305 h -0.56115 -0.56115 l -0.41028,0.48759 -0.41028,0.48758 -0.24394,0.82146 -0.24395,0.82145 v 0.36152 0.36151 l -0.14181,0.0877 -0.14181,0.0876 z"
         id="path26" />
    </g>
  </g>
</svg>
