<svg height="448pt" viewBox="-5 0 448 448" width="448pt" xmlns="http://www.w3.org/2000/svg"><path d="m86.609375 339.199219c-.28125 1.167969-.570313 2.289062-.855469 3.449219-.730468 2.984374-1.457031 5.910156-2.1875 8.800781-.308594 1.230469-.613281 2.511719-.925781 3.726562 43.914063 14.257813 89.855469 21.292969 136.023437 20.824219 46.164063.457031 92.09375-6.582031 136-20.847656-.3125-1.207032-.609374-2.472656-.910156-3.6875-.75-2.945313-1.488281-5.917969-2.21875-8.921875-.277344-1.144531-.558594-2.238281-.839844-3.382813-42.554687 14.199219-87.171874 21.242188-132.03125 20.839844-44.867187.417969-89.492187-6.609375-132.054687-20.800781zm0 0"/><path d="m103.753906 129.441406c1.925782 20.046875 2.910156 41.101563 2.910156 62.558594h56c4.417969 0 8 3.582031 8 8v48c0 4.417969-3.582031 8-8 8h-60.511718c-2.679688 20.953125-6.679688 43.519531-11.9375 67.351562 41.347656 14.074219 84.777344 21.054688 128.449218 20.648438 43.671876.40625 87.101563-6.574219 128.449219-20.648438-5.25-23.847656-9.25-46.414062-11.9375-67.351562h-60.511719c-4.417968 0-8-3.582031-8-8v-48c0-4.417969 3.582032-8 8-8h56c0-21.457031.984376-42.511719 2.921876-62.609375 1.046874-11.664063 2.359374-22.824219 3.886718-33.125 4.441406-32.667969 11.746094-64.878906 21.839844-96.265625h-281.304688c10.101563 31.398438 17.414063 63.621094 21.855469 96.304688 1.519531 10.261718 2.800781 21.421874 3.890625 33.136718zm106.910156 150.558594h16v16h-16zm0 0"/><path d="m218.664062 392c-47.558593.417969-94.871093-6.832031-140.121093-21.472656-9.542969 34.710937-19.160157 62.886718-24.390625 77.472656h329.023437c-5.230469-14.585938-14.847656-42.769531-24.390625-77.472656-45.25 14.640625-92.5625 21.890625-140.121094 21.472656zm0 0"/><path d="m154.664062 208h-104c-4.417968 0-8-3.582031-8-8v-8l-42.664062 32 42.664062 32v-8c0-4.417969 3.582032-8 8-8h104zm0 0"/><path d="m437.328125 224-42.664063-32v8c0 4.417969-3.582031 8-8 8h-104v32h104c4.417969 0 8 3.582031 8 8v8zm0 0"/></svg>